<svg viewBox="0 0 21 20" fill="none" xmlns="http://www.w3.org/2000/svg">
<path d="M10.5 0C13.3513 0 13.7094 0.0115149 14.8291 0.0595703C16.5352 0.133325 18.0342 0.529615 19.2373 1.66895C20.4404 2.80853 20.8586 4.22858 20.9365 5.84473C20.9873 6.9055 21 7.24451 21 9.94531C21 12.646 20.9873 12.9854 20.9365 14.0459C20.8586 15.662 20.4404 17.0821 19.2373 18.2217C18.0342 19.3611 16.5353 19.7573 14.8291 19.8311C13.7094 19.8791 13.3513 19.8906 10.5 19.8906C7.6487 19.8906 7.29059 19.8791 6.1709 19.8311C4.46473 19.7573 2.96579 19.3611 1.7627 18.2217C0.55957 17.0821 0.141352 15.662 0.0634766 14.0459C0.0127437 12.9854 0 12.646 0 9.94531C5.42096e-07 7.24451 0.0127305 6.9055 0.0634766 5.84473C0.141352 4.22858 0.55957 2.80853 1.7627 1.66895C2.96576 0.529616 4.46482 0.133325 6.1709 0.0595703C7.29058 0.0115149 7.64872 0 10.5 0ZM10.499 1.79199C7.69557 1.79199 7.36273 1.80154 6.25586 1.84961C5.06084 1.90102 3.95263 2.1287 3.09961 2.93652C2.2465 3.74458 2.00641 4.79466 1.95215 5.92676C1.9014 6.97514 1.89063 7.29017 1.89062 9.94531C1.89062 12.6008 1.9014 12.9164 1.95215 13.9648C2.00644 15.0968 2.24659 16.1471 3.09961 16.9551C3.9526 17.7628 5.06093 17.9896 6.25586 18.041C7.36273 18.0891 7.69557 18.0996 10.499 18.0996C13.3025 18.0996 13.6353 18.0891 14.7422 18.041C15.9373 17.9896 17.0463 17.7631 17.8994 16.9551C18.7524 16.1471 18.9916 15.0968 19.0459 13.9648C19.0966 12.9164 19.1074 12.6008 19.1074 9.94531C19.1074 7.29017 19.0966 6.97514 19.0459 5.92676C18.9916 4.79476 18.7523 3.74455 17.8994 2.93652C17.0463 2.1285 15.9374 1.90101 14.7422 1.84961C13.6353 1.80154 13.3025 1.79199 10.499 1.79199ZM10.498 4.83789C13.4757 4.83789 15.8896 7.12494 15.8896 9.94531C15.8894 12.7655 13.4755 15.0518 10.498 15.0518C7.52064 15.0517 5.10668 12.7655 5.10645 9.94531C5.10645 7.12498 7.52049 4.83796 10.498 4.83789ZM10.4971 6.62988C8.56429 6.62998 6.99707 8.11458 6.99707 9.94531C6.99722 11.7759 8.56438 13.2597 10.4971 13.2598C12.4298 13.2598 13.9969 11.776 13.9971 9.94531C13.9971 8.11452 12.4299 6.62988 10.4971 6.62988ZM16.1035 3.44336C16.7994 3.44336 17.3632 3.97764 17.3633 4.63672C17.3633 5.29585 16.7994 5.83008 16.1035 5.83008C15.4077 5.83006 14.8438 5.29584 14.8438 4.63672C14.8438 3.97765 15.4077 3.44338 16.1035 3.44336Z" fill="white"/>
</svg>
