<svg viewBox="0 0 21 16" fill="none" xmlns="http://www.w3.org/2000/svg">
<path d="M18.0732 3.85593L18.0857 4.36252C18.0857 9.53565 13.9309 15.4955 6.33203 15.4955C3.99976 15.4955 1.82894 14.8479 4.95911e-05 13.7373C0.323079 13.7731 0.652317 13.793 0.985833 13.793C2.92173 13.793 4.70239 13.1672 6.11601 12.1182C4.30809 12.0865 2.78326 10.9541 2.25684 9.40057C2.5106 9.44625 2.76649 9.46814 3.03495 9.46814C3.41248 9.46814 3.77739 9.42246 4.12346 9.33306C2.23372 8.97148 0.809623 7.39216 0.809623 5.49694V5.44727C1.36751 5.74128 2.00301 5.91609 2.68046 5.93799C1.57304 5.23671 0.843154 4.03878 0.843154 2.68191C0.843154 1.96476 1.04662 1.29328 1.40104 0.715193C3.4376 3.08323 6.48298 4.64072 9.91639 4.80364C9.84505 4.51753 9.80945 4.21758 9.80945 3.91167C9.80945 1.75224 11.6593 0 13.9413 0C15.1284 0 16.2023 0.47477 16.9573 1.23564C17.8969 1.05881 18.782 0.733034 19.5811 0.286038C19.2728 1.1999 18.6184 1.96672 17.7648 2.45142C18.5975 2.35803 19.3966 2.14545 20.1369 1.83556C19.5833 2.61826 18.8806 3.30764 18.0732 3.85593Z" fill="white"/>
</svg>
