<svg   overflow="visible" style="display: block;" viewBox="0 0 59.598 44.441" fill="none" xmlns="http://www.w3.org/2000/svg">
<g id="Group 39806">
<path id="Vector" d="M25.3635 44.441C25.0163 44.441 24.6518 44.4063 24.2873 44.3021C21.9092 43.7119 20.4511 41.2992 21.0413 38.9211L29.9287 3.37149C30.5362 0.993413 32.949 -0.447313 35.3271 0.125507C37.7052 0.73304 39.1459 3.14583 38.5557 5.52391L29.6683 41.0735C29.1649 43.087 27.3597 44.441 25.3635 44.441Z" fill="var(--fill-0, #9E97FF)"/>
<path id="Vector_2" d="M46.2669 35.5538C45.1213 35.5538 43.993 35.1198 43.1251 34.2519C41.3893 32.5161 41.3893 29.7041 43.1251 27.9683L48.8707 22.2227L43.1251 16.4771C41.3893 14.7413 41.3893 11.9293 43.1251 10.1935C44.8609 8.45765 47.673 8.45765 49.4088 10.1935L58.2962 19.0809C60.032 20.8167 60.032 23.6287 58.2962 25.3645L49.4088 34.2519C48.5409 35.1198 47.4126 35.5538 46.2669 35.5538Z" fill="var(--fill-0, #4A3AFF)"/>
<path id="Vector_3" d="M13.3311 35.5538C12.1855 35.5538 11.0572 35.1198 10.1893 34.2519L1.30186 25.3645C-0.433955 23.6287 -0.433955 20.8167 1.30186 19.0809L10.1893 10.1935C11.9251 8.45765 14.7371 8.45765 16.4729 10.1935C18.2087 11.9293 18.2087 14.7413 16.4729 16.4771L10.7274 22.2227L16.4729 27.9683C18.2087 29.7041 18.2087 32.5161 16.4729 34.2519C15.605 35.1198 14.4767 35.5538 13.3311 35.5538Z" fill="var(--fill-0, #4A3AFF)"/>
</g>
</svg>
