<svg   overflow="visible" style="display: block;" viewBox="0 0 57.4167 55.8377" fill="none" xmlns="http://www.w3.org/2000/svg">
<g id="Group 1">
<path id="Path 2" d="M46.1586 16.6605H37.6207C32.5784 16.6605 21.2055 14.1095 24.5669 0C22.468 0.830514 20.6672 2.27271 19.3982 4.13942C18.1291 6.00614 17.4504 8.21119 17.4502 10.4684V14.5964C17.4502 15.3187 17.4747 16.0253 17.5238 16.7162C28.2745 17.4356 38.9163 25.0918 39.8932 39.1206C40.4488 39.1585 41.005 39.1774 41.5617 39.1774H46.1586C49.1445 39.1774 52.008 37.9913 54.1193 35.88C56.2306 33.7687 57.4167 30.9052 57.4167 27.9194C57.4167 24.9336 56.2306 22.0701 54.1193 19.9588C52.008 17.8475 49.1445 16.6614 46.1586 16.6614V16.6605Z" fill="var(--fill-0, #9E97FF)"/>
<path id="Path 3" d="M15.8553 16.6606H11.258C8.27222 16.6606 5.40869 17.8467 3.2974 19.958C1.18611 22.0693 0 24.9328 0 27.9186C0 30.9044 1.18611 33.768 3.2974 35.8793C5.40869 37.9905 8.27222 39.1767 11.258 39.1767H19.7956C24.8374 39.1767 36.2103 41.7277 32.8495 55.8377C34.9482 55.007 36.7489 53.5647 38.0179 51.6979C39.2868 49.8312 39.9655 47.6262 39.9659 45.369V41.2405C39.9659 25.1047 27.6767 16.6606 15.8553 16.6606Z" fill="var(--fill-0, #4A3AFF)"/>
</g>
</svg>
