<svg   overflow="visible" style="display: block;" viewBox="0 0 48.007 52.6168" fill="none" xmlns="http://www.w3.org/2000/svg">
<g id="Mask group">
<mask id="mask0_0_8" style="mask-type:alpha" maskUnits="userSpaceOnUse" x="0" y="0" width="49" height="53">
<path id="Polygon 3" d="M19.4512 1.21978C22.2682 -0.406591 25.7388 -0.406593 28.5558 1.21977L43.4548 9.82171C46.2717 11.4481 48.007 14.4537 48.007 17.7065V34.9103C48.007 38.1631 46.2717 41.1687 43.4548 42.7951L28.5558 51.397C25.7388 53.0234 22.2682 53.0234 19.4513 51.397L4.55227 42.7951C1.73532 41.1687 0 38.1631 0 34.9103V17.7065C0 14.4537 1.73531 11.4481 4.55226 9.82171L19.4512 1.21978Z" fill="var(--fill-0, #C4C4C4)"/>
</mask>
<g mask="url(#mask0_0_8)">
<rect id="Rectangle 4507" width="30.3817" height="30.3817" transform="matrix(0.866025 0.5 -0.866025 0.5 24.0039 -1.86035)" fill="var(--fill-0, #4A3AFF)"/>
<rect id="Rectangle 4508" width="27.9554" height="27.9554" transform="matrix(0.866025 0.5 -2.20305e-08 1 -0.207031 13.5503)" fill="var(--fill-0, #4CBFFF)"/>
<rect id="Rectangle 4509" width="27.9554" height="27.9554" transform="matrix(0.866025 -0.5 2.20305e-08 1 24.0039 27.5317)" fill="var(--fill-0, #9E97FF)"/>
</g>
</g>
</svg>
