<svg   overflow="visible" style="display: block;" viewBox="0 0 39.3828 42.6995" fill="none" xmlns="http://www.w3.org/2000/svg">
<g id="surface15508">
<path id="Vector" d="M2.30611 42.6995C1.37562 42.6995 0.531692 42.1369 0.176807 41.2756C-0.182406 40.4144 0.0166757 39.419 0.674511 38.7611L13.2253 26.2103C14.1298 25.3101 15.5883 25.3101 16.4885 26.2103C17.393 27.1105 17.393 28.5733 16.4885 29.4735L3.93772 42.0243C3.50926 42.4571 2.92067 42.6995 2.30611 42.6995Z" fill="var(--fill-0, #4A3AFF)"/>
<path id="Vector_2" d="M39.2566 0.126348L6.43844 32.9402C-0.416899 26.0849 -0.416899 14.9666 6.43844 8.10692C16.1934 -1.64808 39.2566 0.126348 39.2566 0.126348Z" fill="var(--fill-0, #9E97FF)"/>
<path id="Vector_3" d="M31.2717 32.9398C24.4164 39.7995 13.2981 39.7995 6.43848 32.9398L39.2567 0.125977C39.2567 0.125977 41.0311 23.1848 31.2717 32.9398Z" fill="var(--fill-0, #4A3AFF)"/>
</g>
</svg>
